# AST/ASF file generated using VICON BodyLanguage
# -----------------------------------------------
:version 1.10
:name VICON
:units
  mass 1.0
  length 0.45
  angle deg
:documentation
   .ast/.asf automatically generated from VICON data using
   VICON BodyBuilder and BodyLanguage model FoxedUp or BRILLIANT.MOD
:root
   order TX TY TZ RX RY RZ
   axis XYZ
   position 0 0 0  
   orientation 0 0 0 
:bonedata
  begin
     id 1 
     name lhipjoint
     direction 0.54267 -0.795011 0.271047 
     length 2.39899 
     axis 0 0 0  XYZ
  end
  begin
     id 2 
     name lfemur
     direction 0.34202 -0.939693 0  
     length 7.49701  
     axis 0 0 20  XYZ
    dof rx ry rz
    limits (-160.0 20.0)
           (-70.0 70.0)
           (-60.0 70.0)
  end
  begin
     id 3 
     name ltibia
     direction 0.34202 -0.939693 0   
     length 8.1668   
     axis 0 0 20   XYZ
    dof rx
    limits (-10.0 170.0)
  end
  begin
     id 4 
     name lfoot
     direction 0.0736283 -0.202292 0.976554   
     length 2.13544   
     axis -90 7.62852e-016 20   XYZ
    dof rx rz
    limits (-45.0 90.0)
           (-70.0 20.0)
  end
  begin
     id 5 
     name ltoes
     direction 1.53557e-011 -4.22024e-011 1   
     length 1.07411   
     axis -90 7.62852e-016 20   XYZ
    dof rx
    limits (-90.0 20.0)
  end
  begin
     id 6 
     name rhipjoint
     direction -0.538061 -0.797813 0.272002   
     length 2.39057  
     axis 0 0 0  XYZ 
  end
  begin
     id 7 
     name rfemur
     direction -0.34202 -0.939693 0   
     length 7.50152   
     axis 0 0 -20   XYZ
    dof rx ry rz
    limits (-160.0 20.0)
           (-70.0 70.0)
           (-70.0 60.0)
  end
  begin
     id 8 
     name rtibia
     direction -0.34202 -0.939693 0   
     length 8.05793   
     axis 0 0 -20   XYZ
    dof rx
    limits (-10.0 170.0)
 end
 begin
     id 9 
     name rfoot
     direction -0.0765195 -0.210236 0.974652   
     length 2.28698  
     axis -90 -7.62852e-016 -20   XYZ
    dof rx rz
    limits (-45.0 90.0)
           (-20.0 70.0)
  end
  begin
     id 10 
     name rtoes
     direction -1.53542e-011 -4.21847e-011 1   
     length 1.14762   
     axis -90 -7.62852e-016 -20   XYZ
    dof rx
    limits (-90.0 20.0)
  end
  begin
     id 11 
     name lowerback
     direction -0.0217239 0.996592 -0.0795765   
     length 2.08176   
     axis 0 0 0   XYZ
    dof rx ry rz
    limits (-20.0 45.0)
           (-30.0 30.0)
           (-30.0 30.0)
  end
  begin
     id 12 
     name upperback
     direction -0.00563773 0.999651 -0.0258155   
     length 2.08898   
     axis 0 0 0   XYZ
    dof rx ry rz
    limits (-20.0 45.0)
           (-30.0 30.0)
           (-30.0 30.0)
  end
  begin
     id 13 
     name thorax
     direction 0.0032706 0.999923 0.0119599   
     length 2.0968   
     axis 0 0 0   XYZ
    dof rx ry rz
    limits (-20.0 45.0)
           (-30.0 30.0)
           (-30.0 30.0)
  end
  begin
     id 14 
     name lowerneck
     direction -0.0285886 0.99568 0.0883427   
     length 1.81272   
     axis 0 0 0   XYZ
    dof rx ry rz
    limits (-20.0 45.0)
           (-30.0 30.0)
           (-30.0 30.0)
  end
  begin
     id 15 
     name upperneck
     direction 0.0807535 0.97985 -0.18268   
     length 1.82518   
     axis 0 0 0   XYZ
    dof rx ry rz
    limits (-20.0 45.0)
           (-30.0 30.0)
           (-30.0 30.0)
  end
  begin
     id 16
     name head
     direction 0.0236605 0.997053 -0.0729767  
     length 1.84443  
     axis 0 0 0   XYZ
    dof rx ry rz
    limits (-20.0 45.0)
           (-30.0 30.0)
           (-30.0 30.0)
  end
  begin
     id 17 
     name lclavicle
     direction 0.918986 0.39378 -0.0200683  
     length 3.27822  
     axis 0 0 0   XYZ
    dof ry rz
    limits (-20.0 10.0)
           (0.0 20.0)
  end
  begin
     id 18 
     name lhumerus
     direction 1 -4.4897e-011 2.09544e-027   
     length 5.5568   
     axis 180 -30 -90   XYZ
    dof rx ry rz
    limits (-60.0 90.0)
           (-90.0 90.0)
           (-90.0 90.0)
  end
  begin
     id 19
     name lradius
     direction 1 -4.48957e-011 -1.27696e-026   
     length 3.63979   
     axis 180 -30 -90   XYZ
    dof rx
    limits (-10.0 170.0)
  end
  begin
     id 20
     name lwrist
     direction 1 -4.49001e-011 -1.49001e-026   
     length 1.8199   
     axis 9.0955e-015 90 90   XYZ
    dof ry
    limits (-180.0 0.0)
 end
  begin
     id 21 
     name lhand
     direction 1 -4.48709e-011 -2.9758e-026   
     length 0.569419   
     axis 1.90115e-014 90 90   XYZ
    dof rx rz
    limits (-90.0 90.0)
           (-45.0 45.0)
  end
  begin
     id 22 
     name lfingers
     direction 1 -4.49175e-011 -5.96505e-026   
     length 0.45908   
     axis 3.80223e-014 90 90   XYZ
    dof rx
    limits (0.0 90.0)
  end
  begin
     id 23
     name lthumb
     direction 0.707107 -6.34864e-011 0.707107   
     length 0.65915   
     axis -90 45 -3.84942e-014   XYZ
    dof rx rz
    limits (-45.0 45.0)
           (-45.0 45.0)
  end
  begin
     id 24 
     name rclavicle
     direction -0.911913 0.396426 -0.106115   
     length 3.46301  
     axis 0 0 0   XYZ 
    dof ry rz
    limits (-10.0 20.0)
           (-20.0 0.0)
  end
  begin
     id 25 
     name rhumerus
     direction -1 -4.48965e-011 7.78516e-028  
     length 5.34339   
     axis 180 30 90   XYZ
    dof rx ry rz
    limits (-90.0 60.0)
           (-90.0 90.0)
           (-90.0 90.0)
  end
  begin
     id 26 
     name rradius
     direction -1 -4.48948e-011 -5.79823e-027   
     length 3.65101   
     axis 180 30 90   XYZ
    dof rx
    limits (-10.0 170.0)
  end
  begin
     id 27 
     name rwrist
     direction -1 -4.48995e-011 -1.48996e-026   
     length 1.8255   
     axis 9.0955e-015 -90 -90   XYZ
    dof ry
    limits (-180.0 0.0)
  end
  begin
     id 28
     name rhand
     direction -1 -4.48957e-011 -2.97937e-026   
     length 0.694249   
     axis 1.90115e-014 -90 -90   XYZ
    dof rx rz
    limits (-90.0 90.0)
           (-45.0 45.0)
  end
  begin
     id 29
     name rfingers
     direction -1 -4.4898e-011 -5.95943e-026   
     length 0.559721   
     axis 3.80223e-014 -90 -90   XYZ
    dof rx
    limits (0.0 90.0)
  end
  begin
     id 30
     name rthumb
     direction -0.707107 -6.34969e-011 0.707107   
     length 0.803651   
     axis -90 -45 3.84942e-014   XYZ
    dof rx rz
    limits (-45.0 45.0)
           (-45.0 45.0)
  end
:hierarchy
  begin
    root lhipjoint rhipjoint lowerback
    lhipjoint lfemur
    lfemur ltibia
    ltibia lfoot
    lfoot ltoes
    rhipjoint rfemur
    rfemur rtibia
    rtibia rfoot
    rfoot rtoes
    lowerback upperback
    upperback thorax
    thorax lowerneck lclavicle rclavicle
    lowerneck upperneck
    upperneck head
    lclavicle lhumerus
    lhumerus lradius
    lradius lwrist
    lwrist lhand lthumb
    lhand lfingers
    rclavicle rhumerus
    rhumerus rradius
    rradius rwrist
    rwrist rhand rthumb
    rhand rfingers
  end

#!OML:ASF H:\Terrain\Walking\May29\JustinRory\rory.ASF
:FULLY-SPECIFIED
:DEGREES
1
root 16.6072 16.3604 -19.3019 11.6791 -17.3214 8.42028
lowerback 13.4635 -4.30399 -4.29011
upperback 3.58613 -6.27804 -0.370391
thorax -3.31035 -3.0945 2.99805
lowerneck -14.5082 1.68852 2.70024
upperneck 6.36203 2.56918 -8.32594
head 4.41655 0.813426 -2.82042
rclavicle 2.31087e-014 1.72943e-014
rhumerus -0.207307 -10.0763 -81.4999
rradius 111.865
rwrist -19.4263
rhand -31.3143 57.1341
rfingers 7.12502
rthumb -4.58667 27.2038
lclavicle 2.31087e-014 1.72943e-014
lhumerus 46.6796 -69.4086 69.6722
lradius 83.9023
lwrist -9.72055
lhand -41.9094 37.1359
lfingers 7.12502
lthumb -14.8078 66.5869
rfemur -56.8513 4.04508 24.3259
rtibia 47.23
rfoot -3.06824 7.25959
rtoes 27.461
lfemur 1.26544 8.72461 -21.141
ltibia 42.9501
lfoot 16.5566 -3.46297
ltoes -5.65528
2
root 16.5538 16.4747 -18.9054 11.7538 -16.8957 8.48011
lowerback 13.7603 -4.33291 -3.63564
upperback 3.45028 -6.23138 -0.14626
thorax -3.66324 -3.06104 2.89928
lowerneck -14.2693 1.75399 2.47133
upperneck 6.47761 2.75115 -8.74199
head 4.42969 0.873369 -2.89898
rclavicle 9.18385e-014 -3.81667e-014
rhumerus -0.12612 -10.2623 -81.0617
rradius 112.812
rwrist -19.2022
rhand -13.5477 40.3995
rfingers 7.12502
rthumb 12.5652 10.7973
lclavicle 9.18385e-014 -3.81667e-014
lhumerus 44.874 -69.2434 72.1238
lradius 84.3715
lwrist -11.181
lhand -41.595 35.155
lfingers 7.12502
lthumb -14.5049 64.628
rfemur -56.9091 4.57764 24.1299
rtibia 49.8488
rfoot -4.03067 5.72867
rtoes 37.0538
lfemur -0.798726 9.06283 -20.3695
ltibia 46.3882
lfoot 18.1516 -5.44388
ltoes -14.6535
3
root 16.543 16.4375 -18.558 11.9296 -16.5811 8.12718
lowerback 14.4123 -4.32378 -2.72006
upperback 3.33017 -6.09593 0.139562
thorax -4.21745 -2.98218 2.73727
lowerneck -14.5718 1.84142 2.43184
upperneck 6.83697 2.92846 -8.99573
head 4.60514 0.927005 -2.95861
rclavicle 5.50634e-014 -2.76311e-014
rhumerus 0.272546 -10.2585 -80.6819
rradius 113.463
rwrist -19.2352
rhand -2.64711 33.782
rfingers 7.12502
rthumb 23.0526 5.14079
lclavicle 5.50634e-014 -2.76311e-014
lhumerus 44.0986 -69.1843 73.4536
lradius 84.7928
lwrist -12.0775
lhand -41.9977 34.4381
lfingers 7.12502
lthumb -14.8929 63.8828
rfemur -57.5644 6.41342 23.3991
rtibia 52.6825
rfoot -6.91917 -2.54413
rtoes 25.5373
lfemur -4.08562 9.24502 -19.3013
ltibia 52.6156
lfoot 17.7429 -8.09572
ltoes -17.5303
4
root 16.5408 16.3527 -18.2456 12.0263 -16.3679 7.46907
lowerback 15.2165 -4.09465 -1.78648
upperback 3.4479 -5.64938 0.451965
thorax -4.61388 -2.76092 2.53421
lowerneck -15.3073 1.78831 2.58335
upperneck 7.25934 2.86535 -9.06788
head 4.85533 0.867311 -3.01336
rclavicle -2.64384e-014 -4.77083e-015
rhumerus 0.953168 -10.5931 -80.2141
rradius 114.083
rwrist -19.2669
rhand 1.9683 31.6203
rfingers 7.12502
rthumb 27.4743 3.60432
lclavicle -2.64384e-014 -4.77083e-015
lhumerus 44.8377 -69.4105 73.3221
lradius 85.2414
lwrist -12.5574
lhand -42.219 34.1255
lfingers 7.12502
lthumb -15.1061 63.5543
rfemur -57.8973 8.55925 22.7536
rtibia 55.2394
rfoot -7.833 -2.95308
rtoes 27.5233
lfemur -7.19244 9.46219 -17.8266
ltibia 58.2485
lfoot 17.1645 -9.73204
ltoes -16.923
5
root 16.5275 16.2751 -17.9378 11.4806 -16.1432 7.0832
lowerback 16.7688 -3.80614 -1.22348
upperback 3.3355 -5.18152 0.636532
thorax -5.62721 -2.51252 2.45794
lowerneck -14.5484 1.60539 2.33571
upperneck 7.1559 2.63491 -8.80883
head 4.67733 0.785971 -2.91044
rclavicle -4.45278e-014 2.34566e-014
rhumerus 0.827427 -10.9447 -79.5044
rradius 114.692
rwrist -19.0611
rhand 2.82153 31.8309
rfingers 7.12502
rthumb 28.29 3.94729
lclavicle -4.45278e-014 2.34566e-014
lhumerus 43.8019 -69.8126 74.7521
lradius 85.6315
lwrist -12.9725
lhand -42.2761 32.6849
lfingers 7.12502
lthumb -15.1612 62.1095
rfemur -57.3844 10.3253 22.1943
rtibia 57.6628
rfoot -9.43777 -4.13774
rtoes 25.3914
lfemur -9.90723 9.565 -16.4132
ltibia 63.933
lfoot 16.4734 -9.25909
ltoes -12.1332
6
root 16.5047 16.226 -17.6174 10.3501 -15.6912 6.81897
lowerback 16.5944 -3.62292 -0.398903
upperback 4.90847 -4.8209 0.28819
thorax -3.97759 -2.38227 1.47119
lowerneck -14.274 1.36142 2.6839
upperneck 5.69558 2.09209 -8.33714
head 4.14654 0.598294 -2.85655
rclavicle 7.5737e-014 -6.48038e-014
rhumerus 2.94199 -12.1863 -80.1379
rradius 114.697
rwrist -18.2738
rhand 1.16403 34.5529
rfingers 7.12502
rthumb 26.7048 6.41713
lclavicle 7.5737e-014 -6.48038e-014
lhumerus 50.002 -70.0331 68.4822
lradius 86.0426
lwrist -12.3274
lhand -43.5392 31.9741
lfingers 7.12502
lthumb -16.3776 61.3026
rfemur -55.8577 11.3881 22.1003
rtibia 59.7367
rfoot -11.2827 -6.22004
rtoes 23.2633
lfemur -11.8815 9.50906 -14.9069
ltibia 68.9927
lfoot 15.5035 -10.8639
ltoes -18.2183
7
root 16.475 16.1906 -17.3024 9.28836 -15.0726 6.40288
lowerback 18.1703 -3.62425 0.626008
upperback 5.22191 -4.64724 0.0808581
thorax -4.58027 -2.29112 0.739221
lowerneck -13.6892 1.13906 2.78189
upperneck 5.44966 1.71932 -7.82159
head 3.94849 0.465353 -2.73855
rclavicle -4.1546e-014 8.74653e-015
rhumerus 3.25172 -12.9892 -80.3727
rradius 114.679
rwrist -16.981
rhand -1.88939 38.8135
rfingers 7.12502
rthumb 23.7795 10.265
lclavicle -4.1546e-014 8.74653e-015
lhumerus 50.5132 -70.6319 67.7124
lradius 86.2708
lwrist -11.4323
lhand -44.8933 32.3045
lfingers 7.12502
lthumb -17.681 61.5207
rfemur -54.0743 11.9876 22.5765
rtibia 61.4201
rfoot -12.8452 -7.97385
rtoes 22.0186
lfemur -14.0299 9.39341 -13.1431
ltibia 73.4469
lfoot 13.9099 -12.5416
ltoes -22.7781
8
root 16.435 16.1694 -16.9916 8.39161 -14.3286 6.04424
lowerback 19.7048 -3.70635 1.41065
upperback 5.28263 -4.58485 -0.00953364
thorax -5.38794 -2.25615 0.286679
lowerneck -13.1824 0.934817 2.7235
upperneck 5.79269 1.45476 -7.5111
head 3.95251 0.356088 -2.65266
rclavicle 6.08281e-014 -3.97569e-014
rhumerus 3.21277 -13.5499 -80.414
rradius 114.43
rwrist -14.5848
rhand -6.42023 43.3771
rfingers 7.12502
rthumb 19.4284 14.3277
lclavicle 6.08281e-014 -3.97569e-014
lhumerus 48.9081 -70.9202 69.1351
lradius 86.0859
lwrist -10.8664
lhand -45.4626 30.5815
lfingers 7.12502
lthumb -18.2287 59.7474
rfemur -52.2483 12.279 23.1781
rtibia 62.7101
rfoot -14.2833 -9.54389
rtoes 18.9926
lfemur -16.5494 9.11093 -11.416
ltibia 77.3421
lfoot 11.3685 -13.3633
ltoes -24.9893
9
root 16.3949 16.144 -16.6765 7.54864 -13.302 5.62849
lowerback 21.0524 -3.89139 2.23993
upperback 5.36298 -4.62133 -0.0469174
thorax -6.06967 -2.27452 -0.127815
lowerneck -13.2103 0.764264 2.80127
upperneck 6.75034 1.25923 -7.4054
head 4.23878 0.251707 -2.65228
rclavicle 1.28812e-013 -4.8901e-014
rhumerus 3.20989 -14.1221 -80.5118
rradius 113.846
rwrist -11.5469
rhand -11.1496 47.6514
rfingers 7.12502
rthumb 14.8764 18.2055
lclavicle 1.28812e-013 -4.8901e-014
lhumerus 47.6759 -71.0134 70.2611
lradius 85.3697
lwrist -10.358
lhand -45.888 27.2694
lfingers 7.12502
lthumb -18.6379 56.3965
rfemur -50.2978 12.3187 23.7746
rtibia 63.696
rfoot -16.2296 -11.0739
rtoes 17.4438
lfemur -19.1629 8.76558 -9.5901
ltibia 80.7939
lfoot 8.63039 -13.1876
ltoes -23.4069
10
root 16.3591 16.0985 -16.3612 7.08341 -12.1645 5.01518
lowerback 21.7219 -4.08853 3.16655
upperback 5.51141 -4.64575 0.0420981
thorax -6.31736 -2.29178 -0.510882
lowerneck -13.4086 0.607867 2.69622
upperneck 7.89457 1.09195 -7.02938
head 4.61008 0.168209 -2.53875
rclavicle 4.01545e-014 -2.74323e-014
rhumerus 3.42481 -14.9771 -80.6664
rradius 113.189
rwrist -9.10532
rhand -12.8354 50.0277
rfingers 7.12502
rthumb 13.2519 20.469
lclavicle 4.01545e-014 -2.74323e-014
lhumerus 47.0482 -70.9615 70.8908
lradius 84.3922
lwrist -9.97049
lhand -45.9229 23.2474
lfingers 7.12502
lthumb -18.6715 52.3713
rfemur -48.7352 12.1777 24.4765
rtibia 64.5009
rfoot -18.3997 -11.9594
rtoes 19.72
lfemur -22.3162 8.56922 -7.61
ltibia 83.8172
lfoot 5.3927 -13.6738
ltoes -27.0595
11
root 16.3159 16.0603 -16.0442 7.01837 -11.0034 4.54241
lowerback 21.3442 -4.11597 3.56165
upperback 5.87296 -4.59881 0.299242
thorax -5.73407 -2.26664 -0.508848
lowerneck -13.3779 0.386434 2.56446
upperneck 8.58739 0.819266 -6.7058
head 4.80225 0.0418308 -2.44239
rclavicle 2.50469e-014 -1.98785e-014
rhumerus 4.09862 -16.0721 -80.7478
rradius 112.437
rwrist -6.93399
rhand -12.3493 49.9511
rfingers 7.12502
rthumb 13.7203 20.4234
lclavicle 2.50469e-014 -1.98785e-014
lhumerus 47.3001 -70.7918 70.9722
lradius 83.252
lwrist -9.57682
lhand -45.7844 18.384
lfingers 7.12502
lthumb -18.5383 47.5206
rfemur -47.6198 11.7142 25.1414
rtibia 65.2495
rfoot -20.4301 -12.5862
rtoes 21.4922
lfemur -26.1037 8.47858 -5.93854
ltibia 86.1771
lfoot 2.27843 -13.0586
ltoes -29.7034
